<svg width="29" height="30" viewBox="0 0 29 30" fill="none" xmlns="http://www.w3.org/2000/svg">
<path d="M21.5401 1.91206C23.0112 1.91374 24.4216 2.49916 25.4618 3.53987C26.502 4.58058 27.0871 5.99161 27.0888 7.4634V21.5502C27.0875 23.0221 26.5025 24.4333 25.4622 25.4741C24.4219 26.5148 23.0113 27.1002 21.5401 27.1015H7.45991C5.98881 27.0998 4.57844 26.5144 3.53822 25.4737C2.49799 24.433 1.91285 23.022 1.91116 21.5502V7.4634C1.91285 5.99161 2.49799 4.58058 3.53822 3.53987C4.57844 2.49916 5.98881 1.91374 7.45991 1.91206H21.5401ZM21.5401 0H7.45991C5.48152 0.000337968 3.58426 0.786767 2.18533 2.18635C0.786399 3.58594 0.000337811 5.48408 0 7.4634L0 21.5502C0 23.5296 0.785952 25.4279 2.18496 26.8276C3.58396 28.2272 5.48142 29.0136 7.45991 29.0136H21.5401C23.5186 29.0136 25.416 28.2272 26.815 26.8276C28.214 25.4279 29 23.5296 29 21.5502V7.4634C29 5.48398 28.214 3.58564 26.815 2.18598C25.416 0.78632 23.5186 0 21.5401 0Z" fill="#FCF3FF"/>
<path d="M14.5008 9.86367C15.4188 9.86367 16.3162 10.136 17.0795 10.6463C17.8428 11.1565 18.4377 11.8818 18.7891 12.7303C19.1404 13.5789 19.2323 14.5126 19.0532 15.4134C18.8741 16.3142 18.432 17.1416 17.7829 17.7911C17.1338 18.4405 16.3067 18.8828 15.4063 19.0619C14.5059 19.2411 13.5727 19.1492 12.7245 18.7977C11.8764 18.4462 11.1515 17.851 10.6415 17.0874C10.1314 16.3237 9.85922 15.4259 9.85922 14.5074C9.86057 13.2762 10.35 12.0959 11.2202 11.2253C12.0904 10.3547 13.2702 9.86502 14.5008 9.86367M14.5008 7.95161C13.2047 7.95136 11.9377 8.33564 10.8599 9.05585C9.78218 9.77606 8.9421 10.7998 8.44594 11.9977C7.94979 13.1956 7.81984 14.5138 8.07253 15.7856C8.32523 17.0574 8.94922 18.2257 9.86558 19.1426C10.782 20.0596 11.9495 20.6841 13.2207 20.9372C14.4918 21.1902 15.8094 21.0605 17.0069 20.5643C18.2043 20.0682 19.2278 19.2279 19.9478 18.1498C20.6679 17.0716 21.0523 15.8041 21.0523 14.5074C21.0519 12.769 20.3616 11.1019 19.1331 9.87259C17.9046 8.64325 16.2384 7.95229 14.5008 7.95161V7.95161Z" fill="#FCF3FF"/>
<path fill-rule="evenodd" clip-rule="evenodd" d="M21.2814 6.55963C21.482 6.55963 21.6446 6.39698 21.6446 6.19634C21.6446 5.9957 21.482 5.83305 21.2814 5.83305C21.0809 5.83305 20.9183 5.9957 20.9183 6.19634C20.9183 6.39698 21.0809 6.55963 21.2814 6.55963ZM19.7334 6.19634C19.7334 5.34098 20.4265 4.64758 21.2814 4.64758C22.1364 4.64758 22.8295 5.34098 22.8295 6.19634C22.8295 7.0517 22.1364 7.74511 21.2814 7.74511C20.4265 7.74511 19.7334 7.0517 19.7334 6.19634Z" fill="#FCF3FF"/>
</svg>
