<svg width="20" height="19" viewBox="0 0 20 19" fill="currentColor" xmlns="http://www.w3.org/2000/svg">
<path d="M14.3128 1.23405C15.2627 1.23514 16.1734 1.61296 16.8451 2.28464C17.5168 2.95632 17.8946 3.867 17.8957 4.8169V13.9085C17.8948 14.8585 17.5171 15.7693 16.8453 16.441C16.1736 17.1128 15.2628 17.4905 14.3128 17.4914H5.2212C4.2713 17.4903 3.36062 17.1125 2.68894 16.4408C2.01726 15.7691 1.63943 14.8584 1.63835 13.9085V4.8169C1.63943 3.867 2.01726 2.95632 2.68894 2.28464C3.36062 1.61296 4.2713 1.23514 5.2212 1.23405H14.3128ZM14.3128 0H5.2212C3.94374 0.000218126 2.71867 0.507782 1.81538 1.41108C0.912079 2.31438 0.404515 3.53945 0.404297 4.8169L0.404297 13.9085C0.404297 15.1861 0.91179 16.4113 1.81513 17.3146C2.71848 18.218 3.94368 18.7254 5.2212 18.7254H14.3128C15.5904 18.7254 16.8156 18.218 17.7189 17.3146C18.6223 16.4113 19.1297 15.1861 19.1297 13.9085V4.8169C19.1297 3.53938 18.6223 2.31418 17.7189 1.41084C16.8156 0.507493 15.5904 0 14.3128 0Z" fill="#B661EA"/>
<path d="M9.76712 6.36607C10.3599 6.36607 10.9393 6.54185 11.4322 6.87118C11.9251 7.2005 12.3092 7.66858 12.5361 8.21623C12.7629 8.76388 12.8223 9.36649 12.7066 9.94787C12.591 10.5292 12.3055 11.0633 11.8864 11.4824C11.4672 11.9016 10.9332 12.187 10.3518 12.3027C9.77045 12.4183 9.16783 12.359 8.62018 12.1321C8.07254 11.9053 7.60445 11.5211 7.27513 11.0283C6.94581 10.5354 6.77003 9.95594 6.77003 9.36317C6.7709 8.56856 7.08694 7.80674 7.64882 7.24486C8.21069 6.68299 8.97251 6.36695 9.76712 6.36607ZM9.76712 5.13203C8.93025 5.13186 8.11212 5.37988 7.4162 5.8447C6.72029 6.30953 6.17784 6.97028 5.85747 7.74341C5.5371 8.51654 5.45319 9.3673 5.61636 10.1881C5.77952 11.0089 6.18244 11.7629 6.77414 12.3547C7.36584 12.9466 8.11976 13.3496 8.94054 13.5129C9.76132 13.6763 10.6121 13.5925 11.3853 13.2723C12.1585 12.9521 12.8193 12.4098 13.2843 11.7139C13.7493 11.0181 13.9974 10.2 13.9974 9.36317C13.9972 8.24121 13.5515 7.16525 12.7582 6.37183C11.9649 5.57841 10.8891 5.13246 9.76712 5.13203Z" fill="#B661EA"/>
<path fill-rule="evenodd" clip-rule="evenodd" d="M14.1461 4.23354C14.2756 4.23354 14.3805 4.12856 14.3805 3.99907C14.3805 3.86957 14.2756 3.7646 14.1461 3.7646C14.0166 3.7646 13.9116 3.86957 13.9116 3.99907C13.9116 4.12856 14.0166 4.23354 14.1461 4.23354ZM13.1465 3.99907C13.1465 3.44702 13.594 2.99949 14.1461 2.99949C14.6981 2.99949 15.1456 3.44702 15.1456 3.99907C15.1456 4.55112 14.6981 4.99865 14.1461 4.99865C13.594 4.99865 13.1465 4.55112 13.1465 3.99907Z"/>
</svg>
