<svg width="28" height="28" viewBox="0 0 28 28" fill="none" xmlns="http://www.w3.org/2000/svg">
<path d="M5.21023 0.0420761C2.35608 0.0420761 0 2.39187 0 5.2384V22.771C0 25.6176 2.35608 27.9674 5.21023 27.9674H22.7898C25.6439 27.9674 28 25.6176 28 22.771V5.2384C28 2.39187 25.6439 0.0420761 22.7898 0.0420761H5.21023ZM5.21023 2.58074H22.7898C24.268 2.58074 25.4545 3.76412 25.4545 5.2384V22.771C25.4545 24.2453 24.268 25.4287 22.7898 25.4287H5.21023C3.73201 25.4287 2.54545 24.2453 2.54545 22.771V5.2384C2.54545 3.76412 3.73201 2.58074 5.21023 2.58074ZM13.642 9.20506C12.7079 9.19617 11.9025 9.22346 11.4545 9.44306C11.1567 9.58903 10.9168 9.90002 11.0568 9.91906C11.2299 9.9419 11.6448 10.0339 11.8523 10.3157C12.1208 10.68 12.0909 11.5057 12.0909 11.5057C12.0909 11.5057 12.2471 13.7639 11.733 14.0444C11.3804 14.236 10.9035 13.8124 9.86364 12.0214C9.33036 11.1037 8.94886 10.1174 8.94886 10.1174C8.94886 10.1174 8.84895 9.9016 8.71023 9.80006C8.54223 9.67693 8.3125 9.64139 8.3125 9.64139L5.84659 9.68106C5.84659 9.68106 5.46573 9.67725 5.32955 9.83972C5.20736 9.98443 5.28977 10.2761 5.28977 10.2761C5.28977 10.2761 7.259 14.8472 9.46591 17.1384C11.4921 19.2378 13.8011 19.082 13.8011 19.082H14.8352C14.8352 19.082 15.1521 19.0563 15.3125 18.8837C15.4601 18.725 15.4318 18.4077 15.4318 18.4077C15.4318 18.4077 15.4204 17.0254 16.0682 16.821C16.7071 16.6192 17.5442 18.1694 18.4148 18.7647C19.0728 19.2153 19.5682 19.1217 19.5682 19.1217L21.875 19.082C21.875 19.082 23.0879 19.0052 22.5114 18.0507C22.4643 17.9733 22.1948 17.357 20.8011 16.0674C19.3426 14.7168 19.5208 14.9123 21.2784 12.5767C22.3488 11.1538 22.8041 10.291 22.6705 9.91906C22.5432 9.56491 21.7557 9.68106 21.7557 9.68106H19.1307C19.1307 9.68106 18.9165 9.67408 18.7727 9.76039C18.6315 9.84417 18.5341 10.0381 18.5341 10.0381C18.5341 10.0381 18.1319 11.1243 17.5795 12.0611C16.4137 14.0361 15.9409 14.1266 15.75 14.0047C15.3058 13.7191 15.4318 12.8712 15.4318 12.2594C15.4318 10.3452 15.7328 9.53096 14.875 9.32406C14.5899 9.25551 14.3713 9.21267 13.642 9.20506Z" fill="#FCF3FF"/>
</svg>
