<svg width="19" height="19" viewBox="0 0 19 19" fill="none" xmlns="http://www.w3.org/2000/svg">
<path d="M3.5713 0C1.72837 0 0.207031 1.52134 0.207031 3.36427V14.7155C0.207031 16.5584 1.72837 18.0797 3.5713 18.0797H14.9225C16.7654 18.0797 18.2868 16.5584 18.2868 14.7155V3.36427C18.2868 1.52134 16.7654 0 14.9225 0H3.5713ZM3.5713 1.64361H14.9225C15.877 1.64361 16.6432 2.40978 16.6432 3.36427V14.7155C16.6432 15.67 15.877 16.4361 14.9225 16.4361H3.5713C2.61681 16.4361 1.85064 15.67 1.85064 14.7155V3.36427C1.85064 2.40978 2.61681 1.64361 3.5713 1.64361ZM9.01577 5.93242C8.41256 5.92666 7.89257 5.94433 7.60329 6.0865C7.41099 6.18101 7.25608 6.38235 7.34648 6.39468C7.45824 6.40947 7.72615 6.46906 7.8601 6.6515C8.03351 6.88735 8.01419 7.42194 8.01419 7.42194C8.01419 7.42194 8.11507 8.88393 7.78306 9.06555C7.55542 9.18965 7.24745 8.91537 6.57603 7.7558C6.23169 7.16163 5.98536 6.52309 5.98536 6.52309C5.98536 6.52309 5.92085 6.38338 5.83127 6.31764C5.72279 6.23792 5.57445 6.21491 5.57445 6.21491L3.9822 6.24059C3.9822 6.24059 3.73628 6.23813 3.64835 6.34332C3.56945 6.437 3.62266 6.62581 3.62266 6.62581C3.62266 6.62581 4.8942 9.58535 6.31922 11.0687C7.62753 12.428 9.11849 12.3271 9.11849 12.3271H9.78621C9.78621 12.3271 9.99084 12.3105 10.0944 12.1987C10.1897 12.096 10.1714 11.8905 10.1714 11.8905C10.1714 11.8905 10.164 10.9956 10.5823 10.8633C10.9949 10.7326 11.5354 11.7362 12.0975 12.1216C12.5224 12.4134 12.8423 12.3528 12.8423 12.3528L14.3318 12.3271C14.3318 12.3271 15.115 12.2774 14.7427 11.6594C14.7123 11.6092 14.5383 11.2103 13.6384 10.3753C12.6966 9.50091 12.8117 9.62746 13.9466 8.11534C14.6377 7.19409 14.9317 6.63547 14.8455 6.39468C14.7633 6.1654 14.2548 6.24059 14.2548 6.24059H12.5598C12.5598 6.24059 12.4215 6.23607 12.3287 6.29196C12.2375 6.3462 12.1746 6.47173 12.1746 6.47173C12.1746 6.47173 11.9149 7.17499 11.5582 7.78148C10.8055 9.06021 10.5002 9.11876 10.3769 9.03987C10.0901 8.85497 10.1714 8.306 10.1714 7.90989C10.1714 6.6706 10.3658 6.14341 9.81189 6.00946C9.62781 5.96508 9.48666 5.93735 9.01577 5.93242Z" fill="#B661EA"/>
</svg>
