<svg width="22" height="16" viewBox="0 0 22 16" fill="none" xmlns="http://www.w3.org/2000/svg">
<path d="M11.0768 15.4969C8.68245 15.4188 6.4055 15.3581 4.12855 15.2669C3.63794 15.2452 3.13894 15.1671 2.66091 15.0499C1.76355 14.833 1.14294 14.2732 0.824253 13.3575C0.568463 12.6198 0.476211 11.8603 0.409118 11.0879C0.262354 9.27394 0.262354 7.45999 0.333639 5.64604C0.375572 4.6219 0.400732 3.58908 0.664908 2.59531C0.824253 2.00078 1.01714 1.41928 1.4826 0.989659C1.97321 0.534002 2.54769 0.260607 3.20184 0.23023C4.99656 0.139098 6.78709 0.0262691 8.58181 0.00891071C10.9971 -0.0171269 13.4167 0.01759 15.832 0.0653256C16.8761 0.0870235 17.9286 0.143438 18.9644 0.282305C19.912 0.412493 20.6207 0.959282 20.9981 1.91399C21.2874 2.64738 21.3965 3.41549 21.4594 4.19662C21.6229 6.15378 21.6271 8.11093 21.5348 10.0681C21.4887 11.0619 21.4426 12.06 21.17 13.0277C20.8597 14.1386 20.2014 14.872 19.1027 15.1237C18.675 15.2192 18.2305 15.2539 17.7944 15.2713C15.5133 15.3537 13.2363 15.4275 11.0768 15.4969ZM8.75793 10.5628C10.6701 9.53866 12.5612 8.52319 14.4901 7.48603C12.5654 6.44453 10.6743 5.42472 8.75793 4.38756C8.75793 6.45755 8.75793 8.49282 8.75793 10.5628Z" fill="#B661EA"/>
</svg>
