<svg width="50" height="79" viewBox="0 0 50 79" fill="none" xmlns="http://www.w3.org/2000/svg">
<g id="Location">
<path id="Vector" d="M32.2294 57.5793L46.2001 36.2603C46.2457 36.1913 46.2839 36.1188 46.3138 36.0437C48.7262 32.3101 50 28.0451 50 23.6907C50 10.6277 38.8015 0 25.0368 0C11.2721 0 0.0726804 10.6277 0.0726804 23.6907C0.0726804 28.046 1.34833 32.3128 3.76265 36.049C3.7906 36.1144 3.82322 36.1781 3.86235 36.24L17.3317 57.6324C6.87583 59.0349 0 63.1151 0 68.0646C0 74.1973 10.9814 79 24.9995 79C39.0177 79 49.9991 74.1964 49.9991 68.0646C50 63.0921 42.8036 58.9208 32.2294 57.5793ZM6.27201 34.8543C4.04499 31.4903 2.86811 27.6303 2.86811 23.6907C2.86811 12.0903 12.8124 2.65294 25.0368 2.65294C37.2603 2.65294 47.2046 12.0903 47.2046 23.6907C47.2046 27.6321 46.0277 31.4921 43.8016 34.8543C43.755 34.925 43.7168 34.9984 43.6861 35.0745L28.9262 57.5952C28.7044 57.918 28.6606 57.9914 28.3895 58.4141L24.6622 64.102L6.39688 35.093C6.36426 35.0108 6.32233 34.9303 6.27201 34.8543ZM25.0005 76.3471C11.9151 76.3471 2.79636 71.9812 2.79636 68.0646C2.79636 64.5097 9.6638 61.1599 18.9008 60.1226L23.4388 67.3306C23.6894 67.7277 24.1385 67.9726 24.6259 67.9762C24.6296 67.9762 24.6343 67.9762 24.638 67.9762C25.1207 67.9762 25.5698 67.7392 25.8251 67.3501L30.596 60.0704C39.9802 61.0352 47.2036 64.4699 47.2036 68.0646C47.2046 71.9821 38.0859 76.3471 25.0005 76.3471Z" fill="#FCF3FF"/>
<path id="Vector_2" d="M34.0774 23.6907C34.0774 18.9411 30.0053 15.0767 25.0006 15.0767C19.9958 15.0767 15.9238 18.9411 15.9238 23.6907C15.9238 28.4404 19.9958 32.3048 25.0006 32.3048C30.0053 32.3048 34.0774 28.4404 34.0774 23.6907ZM18.7193 23.6907C18.7193 20.4038 21.5371 17.7296 25.0006 17.7296C28.4641 17.7296 31.2819 20.4038 31.2819 23.6907C31.2819 26.9777 28.4651 29.6519 25.0006 29.6519C21.5361 29.6519 18.7193 26.9777 18.7193 23.6907Z" fill="#FCF3FF"/>
</g>
</svg>
