<svg width="33" height="24" viewBox="0 0 33 24" fill="none" xmlns="http://www.w3.org/2000/svg">
<path d="M16.71 24C13.0018 23.8794 9.47552 23.7855 5.94922 23.6448C5.18941 23.6112 4.41662 23.4906 3.67629 23.3096C2.28655 22.9745 1.32542 22.1098 0.831871 20.6955C0.435731 19.5561 0.29286 18.3831 0.188955 17.19C-0.0383388 14.3882 -0.0383389 11.5865 0.0720609 8.78472C0.137002 7.20286 0.175967 5.6076 0.585095 4.07267C0.831871 3.15439 1.1306 2.25622 1.85145 1.59265C2.61126 0.888855 3.50095 0.46658 4.51403 0.419661C7.2935 0.278903 10.0665 0.104631 12.846 0.0778195C16.5866 0.0376029 20.3337 0.0912253 24.0743 0.164956C25.6913 0.19847 27.3213 0.285606 28.9254 0.500094C30.393 0.701177 31.4905 1.54573 32.075 3.02034C32.5231 4.1531 32.6919 5.33949 32.7894 6.54599C33.0426 9.56894 33.0491 12.5919 32.9062 15.6148C32.8348 17.1498 32.7634 18.6914 32.3413 20.1861C31.8607 21.902 30.8411 23.0348 29.1397 23.4236C28.4773 23.571 27.7889 23.6246 27.1135 23.6515C23.5807 23.7788 20.0544 23.8928 16.71 24ZM13.1187 16.379C16.08 14.7971 19.0089 13.2287 21.9962 11.6267C19.0154 10.018 16.0865 8.44288 13.1187 6.84091C13.1187 10.0381 13.1187 13.1817 13.1187 16.379Z" fill="#FCF3FF"/>
</svg>
