<svg width="24" height="39" viewBox="0 0 24 39" fill="none" xmlns="http://www.w3.org/2000/svg">
<path d="M15.0205 28.4252L21.5315 17.9007C21.5528 17.8666 21.5706 17.8308 21.5845 17.7937C22.7088 15.9506 23.3024 13.845 23.3024 11.6954C23.3024 5.24657 18.0834 0 11.6684 0C5.25335 0 0.0338726 5.24657 0.0338726 11.6954C0.0338726 13.8455 0.628387 15.9519 1.75358 17.7963C1.76661 17.8286 1.78181 17.8601 1.80004 17.8906L8.0774 28.4514C3.20447 29.1438 0 31.1581 0 33.6015C0 36.629 5.11786 39 11.651 39C18.1841 39 23.302 36.6286 23.302 33.6015C23.3024 31.1467 19.9486 29.0875 15.0205 28.4252ZM2.92306 17.2065C1.88516 15.5459 1.33668 13.6403 1.33668 11.6954C1.33668 5.96864 5.9712 1.30968 11.6684 1.30968C17.3651 1.30968 21.9996 5.96864 21.9996 11.6954C21.9996 13.6412 21.4511 15.5467 20.4137 17.2065C20.392 17.2415 20.3742 17.2777 20.3598 17.3152L13.481 28.4331C13.3777 28.5924 13.3572 28.6287 13.2309 28.8373L11.4938 31.6453L2.98126 17.3244C2.96606 17.2838 2.94651 17.2441 2.92306 17.2065ZM11.6514 37.6903C5.553 37.6903 1.30324 35.535 1.30324 33.6015C1.30324 31.8465 4.5038 30.1929 8.80871 29.6808L10.9236 33.2392C11.0404 33.4352 11.2497 33.5561 11.4769 33.5579C11.4786 33.5579 11.4808 33.5579 11.4825 33.5579C11.7075 33.5579 11.9168 33.4409 12.0358 33.2488L14.2592 29.655C18.6327 30.1313 21.9992 31.8269 21.9992 33.6015C21.9996 35.5355 17.7499 37.6903 11.6514 37.6903Z" fill="#B661EA"/>
<path d="M15.8823 11.6956C15.8823 9.35088 13.9845 7.44312 11.6521 7.44312C9.31963 7.44312 7.42188 9.35088 7.42188 11.6956C7.42188 14.0404 9.31963 15.9482 11.6521 15.9482C13.9845 15.9482 15.8823 14.0404 15.8823 11.6956ZM8.72468 11.6956C8.72468 10.0729 10.0379 8.75279 11.6521 8.75279C13.2663 8.75279 14.5795 10.0729 14.5795 11.6956C14.5795 13.3183 13.2667 14.6385 11.6521 14.6385C10.0375 14.6385 8.72468 13.3183 8.72468 11.6956Z" fill="#B661EA"/>
</svg>
